<svg version="1" xmlns="http://www.w3.org/2000/svg" width="1837.333" height="1837.333" viewBox="0 0 1378.000000 1378.000000"><path d="M0 689v689h1378V0H0v689zm577.3-243.9c37.6 5.6 71.3 30.2 87.1 63.4 8.5 18 10.6 29.2 10.6 57.6V587H606.3l-.6-13.4c-.8-15.3-1.8-21.3-5.4-30.9-6.6-17.8-16.9-26.3-35.3-28.9-21.3-3.2-38.9 5-47.4 22.1-5.1 10.1-6.8 19.2-7.4 38.3-.9 33.5 3.6 46.2 20.1 56.6 7.7 4.9 13 7.2 49.6 21.7 16.2 6.4 33 13.5 37.5 15.7 31.5 15.8 47.8 37.9 54 73.4 2.6 14.6 3.9 38.6 3.3 59.4-1.7 58-17.1 94.8-48.7 115.9-14.4 9.6-29.4 15.1-48.8 17.6-42.7 5.6-80.9-6.1-107-32.7-9.5-9.7-14.2-16.2-20.1-27.7-9.8-19.4-12.1-29.6-12.8-57.9l-.5-21.2h68.9l.6 15.7c.9 21.4 3.7 30.8 12.7 42.2 9.7 12.2 34.6 17.3 56 11.4 14.3-3.9 23.8-14.1 27.5-29.4 2.5-10.6 3.8-39.7 2.6-58.7-1.2-18.3-2.4-24.4-6.7-32.2-5.7-10.4-13.5-14.9-56.4-32.5-34.2-13.9-44.3-18.7-55.2-26.1-14.6-9.8-24.5-20.7-31.3-34.3-10.1-20.1-14.6-42.7-14.6-73.6 0-74.2 35.3-121.9 98.1-132.3 7.8-1.4 29.8-1.4 38.3-.1zm271.9.4c24.2 4.2 41.9 13.5 59.3 30.9 11.1 11.2 18.2 22.1 23.6 36 6.7 17.5 8.9 31.3 8.9 57.3V587H872.3l-.6-16.8c-.7-18.2-1.8-24-6.8-34.2-8.5-17-24.2-24.9-44.4-22.2-18.6 2.5-27.1 11.2-32.2 32.8-1.7 7.5-1.8 15.3-1.8 146.4v138.5l2.8 8c4.1 12.1 8.8 18.3 16.7 22.2 13.1 6.6 28.8 6.5 42.6-.2 10.7-5.2 17.7-14 20.9-26 1-3.8 1.8-12.6 2.2-23.8l.6-17.7H941v18.7c0 20.8-1.4 32.2-5.6 45.5-9.6 30.2-33.2 56.3-62.6 69-15.6 6.7-23.8 8.3-43.3 8.2-19.3-.1-34.5-2.6-49-8.3-26.6-10.3-48.2-33.1-57.3-60.6-6-17.8-5.6-6.9-5.9-172.4-.4-166.4-.6-159.6 5.7-177.7 13.7-39.5 47.6-66.4 90.5-71.7 7.9-1 28-.6 35.7.8z"/></svg>