<?xml version="1.0" encoding="utf-8"?>
<!-- Generator: Adobe Illustrator 20.1.0, SVG Export Plug-In . SVG Version: 6.00 Build 0)  -->
<svg version="1.1" id="Calque_1" xmlns="http://www.w3.org/2000/svg" xmlns:xlink="http://www.w3.org/1999/xlink" x="0px" y="0px"
	 viewBox="0 0 1024 1280" style="enable-background:new 0 0 1024 1280;" xml:space="preserve">
<style type="text/css">
	.st0{fill:#FFFFFF;}
</style>
<g>
	<g>
		<path class="st0" d="M134.2,779.3c0-28.1,0-56.1,0-84.2c0-37.8,0-75.6,0-113.4c0-21,0.8-41.9,3.6-62.7c-0.4,2.7-0.7,5.3-1.1,8
			c4.8-35.7,14.3-70.7,28.2-103.9c-1,2.4-2,4.8-3,7.2c8.1-19.1,17.5-37.6,28.4-55.2c5.3-8.6,10.9-17,16.8-25.1
			c1.3-1.8,2.6-3.5,3.9-5.3c0.8-1.1,1.6-2.1,2.4-3.1c3.2-4.3-4.8,6.1-1.5,1.9c3.3-4.1,6.5-8.2,9.9-12.2c13-15.3,27.1-29.7,42.2-43
			c3.6-3.2,7.3-6.3,11-9.3c2-1.7,4.1-3.3,6.1-4.9c1.7-1.4,6-4.5-1.9,1.5c1.2-0.9,2.4-1.9,3.7-2.8c8.2-6.2,16.7-12,25.4-17.6
			c19.3-12.3,39.7-23,60.8-31.9c-2.4,1-4.8,2-7.2,3c33.2-13.9,68.2-23.4,103.9-28.2c-2.7,0.4-5.3,0.7-8,1.1c36-4.7,72.5-4.7,108.5,0
			c-2.7-0.4-5.3-0.7-8-1.1c35.7,4.8,70.7,14.3,103.9,28.2c-2.4-1-4.8-2-7.2-3c19.1,8.1,37.6,17.5,55.2,28.4
			c8.6,5.3,17,10.9,25.1,16.8c1.8,1.3,3.5,2.6,5.3,3.9c1.1,0.8,2.1,1.6,3.1,2.4c4.3,3.2-6.1-4.8-1.9-1.5c4.1,3.3,8.2,6.5,12.2,9.9
			c15.3,13,29.7,27.1,43,42.2c3.2,3.6,6.3,7.3,9.3,11c1.7,2,3.3,4.1,4.9,6.1c1.4,1.7,4.5,6-1.5-1.9c0.9,1.2,1.9,2.4,2.8,3.7
			c6.2,8.2,12,16.7,17.6,25.4c12.3,19.3,23,39.7,31.9,60.8c-1-2.4-2-4.8-3-7.2c13.9,33.2,23.4,68.2,28.2,103.9
			c-0.4-2.7-0.7-5.3-1.1-8c4.4,33.9,3.6,68,3.6,102.1c0,42.1,0,84.2,0,126.4c0,10.6,0,21.2,0,31.8c0,15.7,13.8,30.7,30,30
			c16.3-0.7,30-13.2,30-30c0-34.4,0-68.7,0-103.1c0-34.6,0.1-69.2,0-103.8c-0.2-74.5-19.5-148.5-55.9-213.5
			C858.4,296,807,242.3,746.1,203.4c-62.5-39.8-134.9-62.5-208.8-67c-74.6-4.6-149.5,11-216.8,43.3
			c-65.3,31.3-121.1,79.7-163.7,137.9C113.2,377.1,87,447.4,77.6,520.4c-5,39.2-3.4,79.3-3.4,118.7c0,43.9,0,87.8,0,131.7
			c0,2.8,0,5.7,0,8.5c0,15.7,13.8,30.7,30,30C120.5,808.6,134.2,796.1,134.2,779.3L134.2,779.3z"/>
	</g>
</g>
<g>
	<g>
		<path class="st0" d="M230.7,819.4c0,1.9-0.2,3.7-0.4,5.5c0.4-2.7,0.7-5.3,1.1-8c-0.5,3.1-1.3,6.1-2.4,9.1c1-2.4,2-4.8,3-7.2
			c-1,2.3-2.1,4.3-3.3,6.4c-2.8,4.8,1.9-2.6,2-2.4c0.1,0.2-2.5,2.7-2.6,2.9c-0.8,0.8-1.6,1.4-2.4,2.2c-2.4,2.4,6.4-4.3,2.4-1.9
			c-2.3,1.3-4.5,2.6-7,3.7c2.4-1,4.8-2,7.2-3c-3,1.1-5.9,1.9-9.1,2.4c2.7-0.4,5.3-0.7,8-1.1c-5.5,0.7-11.1,0.4-16.7,0.4
			c-9.3,0-18.7,0-28,0s-18.7,0-28,0c-5.5,0-11.2,0.3-16.7-0.4c2.7,0.4,5.3,0.7,8,1.1c-3.1-0.5-6.1-1.3-9.1-2.4c2.4,1,4.8,2,7.2,3
			c-2.3-1-4.3-2.1-6.4-3.3c-4.8-2.8,2.6,1.9,2.4,2c-0.2,0.1-2.7-2.5-2.9-2.6c-0.8-0.8-1.4-1.6-2.2-2.4c-2.4-2.4,4.3,6.4,1.9,2.4
			c-1.3-2.3-2.6-4.5-3.7-7c1,2.4,2,4.8,3,7.2c-1.1-3-1.9-5.9-2.4-9.1c0.4,2.7,0.7,5.3,1.1,8c-1-8-0.4-16.3-0.4-24.3
			c0-16.3,0-32.5,0-48.8c0-36.9,0-73.8,0-110.8c0-9.6-0.8-19.6,0.4-29.1c-0.4,2.7-0.7,5.3-1.1,8c0.5-3.1,1.3-6.1,2.4-9.1
			c-1,2.4-2,4.8-3,7.2c1-2.3,2.1-4.3,3.3-6.4c2.8-4.8-1.9,2.6-2,2.4c-0.1-0.2,2.5-2.7,2.6-2.9c0.8-0.8,1.6-1.4,2.4-2.2
			c2.4-2.4-6.4,4.3-2.4,1.9c2.3-1.3,4.5-2.6,7-3.7c-2.4,1-4.8,2-7.2,3c3-1.1,5.9-1.9,9.1-2.4c-2.7,0.4-5.3,0.7-8,1.1
			c5.5-0.7,11.1-0.4,16.7-0.4c9.3,0,18.7,0,28,0s18.7,0,28,0c5.5,0,11.2-0.3,16.7,0.4c-2.7-0.4-5.3-0.7-8-1.1
			c3.1,0.5,6.1,1.3,9.1,2.4c-2.4-1-4.8-2-7.2-3c2.3,1,4.3,2.1,6.4,3.3c4.8,2.8-2.6-1.9-2.4-2c0.2-0.1,2.7,2.5,2.9,2.6
			c0.8,0.8,1.4,1.6,2.2,2.4c2.4,2.4-4.3-6.4-1.9-2.4c1.3,2.3,2.6,4.5,3.7,7c-1-2.4-2-4.8-3-7.2c1.1,3,1.9,5.9,2.4,9.1
			c-0.4-2.7-0.7-5.3-1.1-8c1,7.8,0.4,15.9,0.4,23.7c0,16,0,32,0,48c0,36.7,0,73.4,0,110.1C230.7,802.3,230.7,810.8,230.7,819.4
			c0,15.7,13.8,30.7,30,30c16.3-0.7,30-13.2,30-30c0-17.9,0-35.8,0-53.7c0-32.8,0-65.7,0-98.5c0-12.2,0-24.4,0-36.6
			c0-7.6,0.1-15-0.9-22.6c-4.6-34.1-34.2-59.2-68.4-59.6c-11.6-0.1-23.3,0-34.9,0c-13.6,0-27.2,0-40.8,0c-29.1,0-54.6,16-66,43
			c-4.8,11.4-5.4,23.1-5.4,35.1c0,11.3,0,22.6,0,33.9c0,32.7,0,65.4,0,98c0,20.2-0.2,40.4,0,60.5c0.3,30.8,20.5,58.4,50.3,67
			c13.3,3.8,28.2,2.6,42,2.6c15.5,0,30.9,0,46.4,0c3.6,0,7.2,0.1,10.8-0.1c17.8-0.9,35.3-7.9,47.7-21.1c12.3-13.1,19-29.9,19.3-47.9
			c0.3-15.7-14-30.7-30-30C244.3,790.1,231,802.5,230.7,819.4z"/>
	</g>
</g>
<g>
	<g>
		<path class="st0" d="M889.8,819.4c0,1.9-0.2,3.7-0.4,5.5c0.4-2.7,0.7-5.3,1.1-8c-0.5,3.1-1.3,6.1-2.4,9.1c1-2.4,2-4.8,3-7.2
			c-1,2.3-2.1,4.3-3.3,6.4c-2.8,4.8,1.9-2.6,2-2.4c0.1,0.2-2.5,2.7-2.6,2.9c-0.8,0.8-1.6,1.4-2.4,2.2c-2.4,2.4,6.4-4.3,2.4-1.9
			c-2.3,1.3-4.5,2.6-7,3.7c2.4-1,4.8-2,7.2-3c-3,1.1-5.9,1.9-9.1,2.4c2.7-0.4,5.3-0.7,8-1.1c-5.5,0.7-11.1,0.4-16.7,0.4
			c-9.3,0-18.7,0-28,0s-18.7,0-28,0c-5.5,0-11.2,0.3-16.7-0.4c2.7,0.4,5.3,0.7,8,1.1c-3.1-0.5-6.1-1.3-9.1-2.4c2.4,1,4.8,2,7.2,3
			c-2.3-1-4.3-2.1-6.4-3.3c-4.8-2.8,2.6,1.9,2.4,2c-0.2,0.1-2.7-2.5-2.9-2.6c-0.8-0.8-1.4-1.6-2.2-2.4c-2.4-2.4,4.3,6.4,1.9,2.4
			c-1.3-2.3-2.6-4.5-3.7-7c1,2.4,2,4.8,3,7.2c-1.1-3-1.9-5.9-2.4-9.1c0.4,2.7,0.7,5.3,1.1,8c-1-8-0.4-16.3-0.4-24.3
			c0-16.3,0-32.5,0-48.8c0-36.9,0-73.8,0-110.8c0-9.6-0.8-19.6,0.4-29.1c-0.4,2.7-0.7,5.3-1.1,8c0.5-3.1,1.3-6.1,2.4-9.1
			c-1,2.4-2,4.8-3,7.2c1-2.3,2.1-4.3,3.3-6.4c2.8-4.8-1.9,2.6-2,2.4c-0.1-0.2,2.5-2.7,2.6-2.9c0.8-0.8,1.6-1.4,2.4-2.2
			c2.4-2.4-6.4,4.3-2.4,1.9c2.3-1.3,4.5-2.6,7-3.7c-2.4,1-4.8,2-7.2,3c3-1.1,5.9-1.9,9.1-2.4c-2.7,0.4-5.3,0.7-8,1.1
			c5.5-0.7,11.1-0.4,16.7-0.4c9.3,0,18.7,0,28,0s18.7,0,28,0c5.5,0,11.2-0.3,16.7,0.4c-2.7-0.4-5.3-0.7-8-1.1
			c3.1,0.5,6.1,1.3,9.1,2.4c-2.4-1-4.8-2-7.2-3c2.3,1,4.3,2.1,6.4,3.3c4.8,2.8-2.6-1.9-2.4-2c0.2-0.1,2.7,2.5,2.9,2.6
			c0.8,0.8,1.4,1.6,2.2,2.4c2.4,2.4-4.3-6.4-1.9-2.4c1.3,2.3,2.6,4.5,3.7,7c-1-2.4-2-4.8-3-7.2c1.1,3,1.9,5.9,2.4,9.1
			c-0.4-2.7-0.7-5.3-1.1-8c1,7.8,0.4,15.9,0.4,23.7c0,16,0,32,0,48c0,36.7,0,73.4,0,110.1C889.8,802.3,889.8,810.8,889.8,819.4
			c0,15.7,13.8,30.7,30,30c16.3-0.7,30-13.2,30-30c0-17.9,0-35.8,0-53.7c0-32.8,0-65.7,0-98.5c0-12.2,0-24.4,0-36.6
			c0-7.6,0.1-15-0.9-22.6c-4.6-34.1-34.2-59.2-68.4-59.6c-11.6-0.1-23.3,0-34.9,0c-13.6,0-27.2,0-40.8,0c-29.1,0-54.6,16-66,43
			c-4.8,11.4-5.4,23.1-5.4,35.1c0,11.3,0,22.6,0,33.9c0,32.7,0,65.4,0,98c0,20.2-0.2,40.4,0,60.5c0.3,30.8,20.5,58.4,50.3,67
			c13.3,3.8,28.2,2.6,42,2.6c15.5,0,30.9,0,46.4,0c3.6,0,7.2,0.1,10.8-0.1c17.8-0.9,35.3-7.9,47.7-21.1c12.3-13.1,19-29.9,19.3-47.9
			c0.3-15.7-14-30.7-30-30C903.3,790.1,890.1,802.5,889.8,819.4z"/>
	</g>
</g>
<g>
	<g>
		<path class="st0" d="M340.6,346.7c0.8-0.7,1.7-1.3,2.5-2c-3.8,2.9-4.7,3.6-2.9,2.3c1.3-1,2.6-1.9,3.8-2.9c2.8-2.1,5.6-4.1,8.5-6
			c5.5-3.8,11.2-7.3,16.9-10.7c11.8-7,24.1-13.1,36.7-18.4c-2.4,1-4.8,2-7.2,3c24.8-10.4,50.9-17.4,77.5-21c-2.7,0.4-5.3,0.7-8,1.1
			c27-3.5,54.2-3.5,81.2,0c-2.7-0.4-5.3-0.7-8-1.1c27.1,3.7,53.5,10.9,78.7,21.5c-2.4-1-4.8-2-7.2-3c12.8,5.5,25.2,11.8,37.2,18.9
			c5.9,3.6,11.7,7.3,17.4,11.2c2.6,1.8,5.2,3.7,7.8,5.6c1.3,0.9,2.5,2,3.8,2.9c-7.9-5.7-1.5-1.1,0.2,0.2c6.4,5.2,12.6,8.8,21.2,8.8
			c7.4,0,16.1-3.3,21.2-8.8c10-10.9,13.1-31.9,0-42.4c-45.7-36.7-99.6-62.8-157.8-71.8c-59.3-9.2-120.8-4.2-176.8,18.3
			c-32.6,13.1-61.8,30.3-89.3,52c-5.6,4.4-8.8,14.4-8.8,21.2c0,7.4,3.3,16.1,8.8,21.2c5.7,5.2,13.2,9.1,21.2,8.8
			C327.8,355.1,334,352,340.6,346.7L340.6,346.7z"/>
	</g>
</g>
</svg>
