<svg id="Calque_1" data-name="Calque 1" xmlns="http://www.w3.org/2000/svg" viewBox="0 0 562.76 1000"><defs><style>.cls-1{fill:#fff;}</style></defs><title>mute</title><path class="cls-1" d="M517.26.21C505.88-.85,492.57,1.9,476.88,11.4c0,0-260.63,227.38-272,238.57H61.5A62.62,62.62,0,0,0-1,312.53V695.47A62.44,62.44,0,0,0,61.5,758H204.94c11.37,11.31,272,230.63,272,230.63,15.69,9.44,29,12.25,40.37,11.19,23.13-2.19,39.38-21.56,44.31-42,.19-2,.19-913.51-.13-915.51C556.63,21.78,540.32,2.4,517.26.21Z" transform="translate(1)"/></svg>